<svg width="112" height="112" viewBox="0 0 112 112" fill="none" xmlns="http://www.w3.org/2000/svg">
<g clip-path="url(#clip0_1386_2432)">
<path d="M6.41598 90.4479L7.61731 90.1047C6.24436 82.2103 6.75922 74.316 8.99026 67.2797C10.02 63.6758 11.5646 60.4151 13.4524 57.1544C15.3402 54.0653 17.5712 51.3194 19.9739 48.7452C20.832 47.8871 21.5185 47.2007 22.3765 46.5142L17.228 38.2766C9.67674 46.5142 4.52817 57.1544 3.49846 69.1675C2.81198 76.0322 3.49846 82.5536 5.38627 88.7318C5.55788 89.4182 5.90112 89.9331 6.24436 90.6195H6.41598V90.4479Z" fill="#636363"/>
<path d="M91.3679 34.8448C89.1368 32.7854 86.7342 30.8976 84.1599 29.3531C77.2951 25.0627 69.4006 22.3168 60.9913 21.4587C48.6347 20.2574 36.793 23.5181 27.0107 30.0395L33.0174 39.8216C34.3904 39.3068 35.7633 38.6203 37.1363 38.2771C40.2254 37.2474 43.3145 36.7326 46.5753 36.3893C49.6645 36.2177 52.7536 36.2177 55.8427 36.7326C61.8494 37.7623 67.3412 40.1649 71.8033 43.5972C72.3182 44.112 73.0046 44.4553 73.5195 44.9701L91.3679 34.8448Z" fill="#636363"/>
<path d="M108.526 78.7786C108.183 82.8974 107.325 87.0162 105.952 90.7917L105.437 90.6201L80.3809 82.7258C81.4106 81.0096 82.4403 78.9502 82.9551 76.8908C83.6416 74.8314 83.9849 72.4288 84.1565 70.1978C84.1565 69.3397 84.1565 68.31 84.1565 67.452L101.833 48.0593C106.982 56.9834 109.556 67.6236 108.526 78.7786Z" fill="#636363"/>
<g opacity="0.6" filter="url(#filter0_f_1386_2432)">
<path d="M96.6872 41.5379C96.5155 41.0231 95.8291 41.0231 95.4858 41.1947L49.3203 66.7655C48.4622 67.2803 47.6041 67.9668 46.9176 68.6533C43.3136 72.6004 43.6569 78.607 47.6041 82.2109C51.5514 85.8149 57.558 85.4717 61.162 81.5245L96.6872 42.5676C96.8588 42.2244 97.0304 41.8811 96.6872 41.5379ZM53.4392 80.4948C50.6933 80.3232 48.8054 77.9205 48.9771 75.1747C49.1487 72.4288 51.5514 70.541 54.2973 70.7127C57.0432 70.8843 58.931 73.2869 58.7593 76.0328C58.5877 78.7786 56.1851 80.838 53.4392 80.4948Z" fill="#FDEA2E"/>
</g>
<path d="M96.6872 41.5379C96.5155 41.0231 95.8291 41.0231 95.4858 41.1947L49.3203 66.7655C48.4622 67.2803 47.6041 67.9668 46.9176 68.6533C43.3136 72.6004 43.6569 78.607 47.6041 82.2109C51.5514 85.8149 57.558 85.4717 61.162 81.5245L96.6872 42.5676C96.8588 42.2244 97.0304 41.8811 96.6872 41.5379ZM53.4392 80.4948C50.6933 80.3232 48.8054 77.9205 48.9771 75.1747C49.1487 72.4288 51.5514 70.541 54.2973 70.7127C57.0432 70.8843 58.931 73.2869 58.7593 76.0328C58.5877 78.7786 56.1851 80.838 53.4392 80.4948Z" fill="#FDEA2E"/>
</g>
<defs>
<filter id="filter0_f_1386_2432" x="21.0827" y="17.7587" width="99.1364" height="90.2873" filterUnits="userSpaceOnUse" color-interpolation-filters="sRGB">
<feFlood flood-opacity="0" result="BackgroundImageFix"/>
<feBlend mode="normal" in="SourceGraphic" in2="BackgroundImageFix" result="shape"/>
<feGaussianBlur stdDeviation="11.6667" result="effect1_foregroundBlur_1386_2432"/>
</filter>
<clipPath id="clip0_1386_2432">
<rect width="112" height="112" fill="white"/>
</clipPath>
</defs>
</svg>
